<?xml version="1.0" encoding="UTF-8" standalone="no"?>
<!DOCTYPE svg PUBLIC "-//W3C//DTD SVG 1.0//EN" "http://www.w3.org/TR/2001/PR-SVG-20010719/DTD/svg10.dtd">
<svg width="21cm" height="75cm" viewBox="234 75 404 1495" xmlns="http://www.w3.org/2000/svg" xmlns:xlink="http://www.w3.org/1999/xlink">
  <g>
    <polygon style="fill: #ffffff" points="410.438,137.217 453.222,176.545 410.438,215.872 367.654,176.545 "/>
    <polygon style="fill: none; fill-opacity:0; stroke-width: 3.048; stroke: #000000" points="410.438,137.217 453.222,176.545 410.438,215.872 367.654,176.545 "/>
    <text font-size="11.2889" style="fill: #000000;text-anchor:middle;font-family:Liberation Sans Narrow;font-style:normal;font-weight:700" x="410.438" y="173.034">
      <tspan x="410.438" y="173.034">speakers</tspan>
      <tspan x="410.438" y="187.145">play?</tspan>
    </text>
  </g>
  <text font-size="13.5467" style="fill: #000000;text-anchor:start;font-family:Liberation Sans Narrow;font-style:normal;font-weight:700" x="452" y="170">
    <tspan x="452" y="170">Y</tspan>
  </text>
  <text font-size="13.5467" style="fill: #000000;text-anchor:start;font-family:Liberation Sans Narrow;font-style:normal;font-weight:700" x="390" y="222">
    <tspan x="390" y="222">N</tspan>
  </text>
  <g>
    <ellipse style="fill: #ffffff" cx="492.602" cy="177.597" rx="19.1805" ry="16.2445"/>
    <ellipse style="fill: none; fill-opacity:0; stroke-width: 3.048; stroke: #000000" cx="492.602" cy="177.597" rx="19.1805" ry="16.2445"/>
    <text font-size="11.2889" style="fill: #000000;text-anchor:middle;font-family:Liberation Sans Narrow;font-style:normal;font-weight:700" x="492.602" y="181.142">
      <tspan x="492.602" y="181.142">Done</tspan>
    </text>
  </g>
  <g>
    <rect style="fill: #ffffff" x="358.339" y="235.84" width="103.661" height="21.1591"/>
    <rect style="fill: none; fill-opacity:0; stroke-width: 3.048; stroke: #000000" x="358.339" y="235.84" width="103.661" height="21.1591"/>
    <text font-size="11.2889" style="fill: #000000;text-anchor:middle;font-family:Liberation Sans Narrow;font-style:normal;font-weight:700" x="410.169" y="249.964">
      <tspan x="410.169" y="249.964">Unmute all controls</tspan>
    </text>
  </g>
  <line style="fill: none; fill-opacity:0; stroke-width: 3.048; stroke: #000000" x1="410.282" y1="217.257" x2="410.216" y2="234.325"/>
  <g>
    <polygon style="fill: #ffffff" points="410.038,273.268 452.822,312.595 410.038,351.923 367.254,312.595 "/>
    <polygon style="fill: none; fill-opacity:0; stroke-width: 3.048; stroke: #000000" points="410.038,273.268 452.822,312.595 410.038,351.923 367.254,312.595 "/>
    <text font-size="11.2889" style="fill: #000000;text-anchor:middle;font-family:Liberation Sans Narrow;font-style:normal;font-weight:700" x="410.038" y="309.084">
      <tspan x="410.038" y="309.084">speakers</tspan>
      <tspan x="410.038" y="323.195">play?</tspan>
    </text>
  </g>
  <text font-size="13.5467" style="fill: #000000;text-anchor:start;font-family:Liberation Sans Narrow;font-style:normal;font-weight:700" x="451.6" y="305.05">
    <tspan x="451.6" y="305.05">Y</tspan>
  </text>
  <text font-size="13.5467" style="fill: #000000;text-anchor:start;font-family:Liberation Sans Narrow;font-style:normal;font-weight:700" x="389.6" y="358.05">
    <tspan x="389.6" y="358.05">N</tspan>
  </text>
  <g>
    <ellipse style="fill: #ffffff" cx="492.202" cy="312.896" rx="19.1805" ry="16.2445"/>
    <ellipse style="fill: none; fill-opacity:0; stroke-width: 3.048; stroke: #000000" cx="492.202" cy="312.896" rx="19.1805" ry="16.2445"/>
    <text font-size="11.2889" style="fill: #000000;text-anchor:middle;font-family:Liberation Sans Narrow;font-style:normal;font-weight:700" x="492.202" y="316.441">
      <tspan x="492.202" y="316.441">Done</tspan>
    </text>
  </g>
  <g>
    <rect style="fill: #ffffff" x="324.724" y="371.89" width="171.498" height="49.3813"/>
    <rect style="fill: none; fill-opacity:0; stroke-width: 3.048; stroke: #000000" x="324.724" y="371.89" width="171.498" height="49.3813"/>
    <text font-size="11.2889" style="fill: #000000;text-anchor:middle;font-family:Liberation Sans Narrow;font-style:normal;font-weight:700" x="410.473" y="386.014">
      <tspan x="410.473" y="386.014">You've ruled out mutes.</tspan>
      <tspan x="410.473" y="400.125">Check for and fix low level </tspan>
      <tspan x="410.473" y="414.236">outputs in alsamixer and pavucontrol</tspan>
    </text>
  </g>
  <line style="fill: none; fill-opacity:0; stroke-width: 3.048; stroke: #000000" x1="410.249" y1="353.245" x2="410.337" y2="370.366"/>
  <line style="fill: none; fill-opacity:0; stroke-width: 3.048; stroke: #000000" x1="410.169" y1="256.999" x2="410.038" y2="273.268"/>
  <g>
    <polygon style="fill: #ffffff" points="410.138,438.318 452.922,477.645 410.138,516.973 367.354,477.645 "/>
    <polygon style="fill: none; fill-opacity:0; stroke-width: 3.048; stroke: #000000" points="410.138,438.318 452.922,477.645 410.138,516.973 367.354,477.645 "/>
    <text font-size="11.2889" style="fill: #000000;text-anchor:middle;font-family:Liberation Sans Narrow;font-style:normal;font-weight:700" x="410.138" y="474.134">
      <tspan x="410.138" y="474.134">speakers</tspan>
      <tspan x="410.138" y="488.245">play?</tspan>
    </text>
  </g>
  <text font-size="13.5467" style="fill: #000000;text-anchor:start;font-family:Liberation Sans Narrow;font-style:normal;font-weight:700" x="451.2" y="472.1">
    <tspan x="451.2" y="472.1">Y</tspan>
  </text>
  <text font-size="13.5467" style="fill: #000000;text-anchor:start;font-family:Liberation Sans Narrow;font-style:normal;font-weight:700" x="392.556" y="520.174">
    <tspan x="392.556" y="520.174">N</tspan>
  </text>
  <g>
    <ellipse style="fill: #ffffff" cx="490.802" cy="478.446" rx="19.1805" ry="16.2445"/>
    <ellipse style="fill: none; fill-opacity:0; stroke-width: 3.048; stroke: #000000" cx="490.802" cy="478.446" rx="19.1805" ry="16.2445"/>
    <text font-size="11.2889" style="fill: #000000;text-anchor:middle;font-family:Liberation Sans Narrow;font-style:normal;font-weight:700" x="490.802" y="481.991">
      <tspan x="490.802" y="481.991">Done</tspan>
    </text>
  </g>
  <g>
    <rect style="fill: #ffffff" x="308.26" y="751.254" width="200.798" height="49.3813"/>
    <rect style="fill: none; fill-opacity:0; stroke-width: 3.048; stroke: #000000" x="308.26" y="751.254" width="200.798" height="49.3813"/>
    <text font-size="11.2889" style="fill: #000000;text-anchor:middle;font-family:Liberation Sans Narrow;font-style:normal;font-weight:700" x="408.659" y="765.378">
      <tspan x="408.659" y="765.378">You've ruled out the speaker system.</tspan>
      <tspan x="408.659" y="779.489">Check hardware with lspci and lshw as well </tspan>
      <tspan x="408.659" y="793.6">as the outputs in alsamixer and pavucontrol</tspan>
    </text>
  </g>
  <line style="fill: none; fill-opacity:0; stroke-width: 3.048; stroke: #000000" x1="410.474" y1="421.272" x2="410.138" y2="438.318"/>
  <g>
    <polygon style="fill: #ffffff" points="408.224,818.372 451.508,858.159 408.224,897.946 364.94,858.159 "/>
    <polygon style="fill: none; fill-opacity:0; stroke-width: 3.048; stroke: #000000" points="408.224,818.372 451.508,858.159 408.224,897.946 364.94,858.159 "/>
    <text font-size="11.2889" style="fill: #000000;text-anchor:middle;font-family:Liberation Sans Narrow;font-style:normal;font-weight:700" x="408.224" y="854.648">
      <tspan x="408.224" y="854.648">hardware</tspan>
      <tspan x="408.224" y="868.759">found?</tspan>
    </text>
  </g>
  <text font-size="19.1911" style="fill: #990000;text-anchor:start;font-family:Liberation Sans Narrow;font-style:normal;font-weight:700" x="385.586" y="904.314">
    <tspan x="385.586" y="904.314">Y</tspan>
  </text>
  <text font-size="19.1911" style="fill: #990000;text-anchor:start;font-family:Liberation Sans Narrow;font-style:normal;font-weight:700" x="453.586" y="850.314">
    <tspan x="453.586" y="850.314">N</tspan>
  </text>
  <g>
    <ellipse style="fill: #ffffff" cx="410.433" cy="97.8102" rx="23.5672" ry="21.1746"/>
    <ellipse style="fill: none; fill-opacity:0; stroke-width: 3.048; stroke: #000000" cx="410.433" cy="97.8102" rx="23.5672" ry="21.1746"/>
    <text font-size="11.2889" style="fill: #000000;text-anchor:middle;font-family:Liberation Sans Narrow;font-style:normal;font-weight:700" x="410.433" y="101.355">
      <tspan x="410.433" y="101.355">Start</tspan>
    </text>
  </g>
  <g>
    <rect style="fill: #ffffff" x="344.438" y="1164.96" width="127.648" height="63.4924"/>
    <rect style="fill: none; fill-opacity:0; stroke-width: 3.048; stroke: #000000" x="344.438" y="1164.96" width="127.648" height="63.4924"/>
    <text font-size="11.2889" style="fill: #000000;text-anchor:middle;font-family:Liberation Sans Narrow;font-style:normal;font-weight:700" x="408.262" y="1186.14">
      <tspan x="408.262" y="1186.14">You've ruled out Pulsaudio</tspan>
      <tspan x="408.262" y="1200.25">config. It might be drivers.</tspan>
      <tspan x="408.262" y="1214.36">Reboot</tspan>
    </text>
  </g>
  <line style="fill: none; fill-opacity:0; stroke-width: 3.048; stroke: #000000" x1="408.218" y1="899.467" x2="408.216" y2="913.719"/>
  <line style="fill: none; fill-opacity:0; stroke-width: 3.048; stroke: #000000" x1="408.66" y1="800.636" x2="408.224" y2="818.372"/>
  <line style="fill: none; fill-opacity:0; stroke-width: 3.048; stroke: #000000" x1="410.436" y1="120.477" x2="410.438" y2="137.217"/>
  <g>
    <polyline style="fill: none; fill-opacity:0; stroke-width: 3.048; stroke: #000000" points="566.111,858.401 636.5,858.4 636.5,97.8102 446.433,97.8102 "/>
    <polygon style="fill: #000000" points="438.933,97.8102 448.933,92.8102 446.433,97.8102 448.933,102.81 "/>
    <polygon style="fill: none; fill-opacity:0; stroke-width: 3.048; stroke: #000000" points="438.933,97.8102 448.933,92.8102 446.433,97.8102 448.933,102.81 "/>
  </g>
  <g>
    <rect style="fill: #ffffff" x="472.236" y="833.71" width="92.35" height="49.3813"/>
    <rect style="fill: none; fill-opacity:0; stroke-width: 3.048; stroke: #000000" x="472.236" y="833.71" width="92.35" height="49.3813"/>
    <text font-size="11.2889" style="fill: #000000;text-anchor:middle;font-family:Liberation Sans Narrow;font-style:normal;font-weight:700" x="518.411" y="847.834">
      <tspan x="518.411" y="847.834">Repair hardware,</tspan>
      <tspan x="518.411" y="861.945">or enable sound </tspan>
      <tspan x="518.411" y="876.056">card in BIOS</tspan>
    </text>
  </g>
  <line style="fill: none; fill-opacity:0; stroke-width: 3.048; stroke: #000000" x1="451.508" y1="858.158" x2="470.708" y2="858.228"/>
  <g>
    <rect style="fill: #ffffff" x="315.136" y="1335.96" width="187.848" height="49.3813"/>
    <rect style="fill: none; fill-opacity:0; stroke-width: 3.048; stroke: #000000" x="315.136" y="1335.96" width="187.848" height="49.3813"/>
    <text font-size="11.2889" style="fill: #000000;text-anchor:middle;font-family:Liberation Sans Narrow;font-style:normal;font-weight:700" x="409.06" y="1357.14">
      <tspan x="409.06" y="1357.14">Troubleshoot drivers with lspci, lsmod,</tspan>
      <tspan x="409.06" y="1371.25">modprobe, /etc/modprobe.d, and the like.</tspan>
    </text>
  </g>
  <g>
    <polygon style="fill: #ffffff" points="408.224,1239.39 451.008,1278.72 408.224,1318.04 365.44,1278.72 "/>
    <polygon style="fill: none; fill-opacity:0; stroke-width: 3.048; stroke: #000000" points="408.224,1239.39 451.008,1278.72 408.224,1318.04 365.44,1278.72 "/>
    <text font-size="11.2889" style="fill: #000000;text-anchor:middle;font-family:Liberation Sans Narrow;font-style:normal;font-weight:700" x="408.224" y="1275.21">
      <tspan x="408.224" y="1275.21">speakers</tspan>
      <tspan x="408.224" y="1289.32">play?</tspan>
    </text>
  </g>
  <text font-size="13.5467" style="fill: #000000;text-anchor:start;font-family:Liberation Sans Narrow;font-style:normal;font-weight:700" x="447.786" y="1271.17">
    <tspan x="447.786" y="1271.17">Y</tspan>
  </text>
  <text font-size="13.5467" style="fill: #000000;text-anchor:start;font-family:Liberation Sans Narrow;font-style:normal;font-weight:700" x="385.786" y="1324.17">
    <tspan x="385.786" y="1324.17">N</tspan>
  </text>
  <g>
    <ellipse style="fill: #ffffff" cx="540.319" cy="1279.09" rx="55.689" ry="51.9246"/>
    <ellipse style="fill: none; fill-opacity:0; stroke-width: 3.048; stroke: #000000" cx="540.319" cy="1279.09" rx="55.689" ry="51.9246"/>
    <text font-size="11.2889" style="fill: #000000;text-anchor:middle;font-family:Liberation Sans Narrow;font-style:normal;font-weight:700" x="540.319" y="1254.41">
      <tspan x="540.319" y="1254.41">You got</tspan>
      <tspan x="540.319" y="1268.53">lucky: Done.</tspan>
      <tspan x="540.319" y="1282.64">But watch out</tspan>
      <tspan x="540.319" y="1296.75">for intermittent </tspan>
      <tspan x="540.319" y="1310.86">sound in future</tspan>
    </text>
  </g>
  <line style="fill: none; fill-opacity:0; stroke-width: 3.048; stroke: #000000" x1="408.813" y1="1319.03" x2="409.06" y2="1335.96"/>
  <line style="fill: none; fill-opacity:0; stroke-width: 3.048; stroke: #000000" x1="408.262" y1="1228.45" x2="408.224" y2="1239.39"/>
  <g>
    <polygon style="fill: #ffffff" points="409.024,1403.29 451.808,1442.62 409.024,1481.94 366.24,1442.62 "/>
    <polygon style="fill: none; fill-opacity:0; stroke-width: 3.048; stroke: #000000" points="409.024,1403.29 451.808,1442.62 409.024,1481.94 366.24,1442.62 "/>
    <text font-size="11.2889" style="fill: #000000;text-anchor:middle;font-family:Liberation Sans Narrow;font-style:normal;font-weight:700" x="409.024" y="1439.11">
      <tspan x="409.024" y="1439.11">speakers</tspan>
      <tspan x="409.024" y="1453.22">play?</tspan>
    </text>
  </g>
  <text font-size="13.5467" style="fill: #000000;text-anchor:start;font-family:Liberation Sans Narrow;font-style:normal;font-weight:700" x="449.586" y="1435.07">
    <tspan x="449.586" y="1435.07">Y</tspan>
  </text>
  <text font-size="13.5467" style="fill: #000000;text-anchor:start;font-family:Liberation Sans Narrow;font-style:normal;font-weight:700" x="387.586" y="1488.07">
    <tspan x="387.586" y="1488.07">N</tspan>
  </text>
  <g>
    <ellipse style="fill: #ffffff" cx="493.188" cy="1441.92" rx="19.1805" ry="16.2445"/>
    <ellipse style="fill: none; fill-opacity:0; stroke-width: 3.048; stroke: #000000" cx="493.188" cy="1441.92" rx="19.1805" ry="16.2445"/>
    <text font-size="11.2889" style="fill: #000000;text-anchor:middle;font-family:Liberation Sans Narrow;font-style:normal;font-weight:700" x="493.188" y="1445.46">
      <tspan x="493.188" y="1445.46">Done</tspan>
    </text>
  </g>
  <g>
    <rect style="fill: #ffffff" x="313.45" y="1509.8" width="191.136" height="58.0702"/>
    <rect style="fill: none; fill-opacity:0; stroke-width: 3.048; stroke: #000000" x="313.45" y="1509.8" width="191.136" height="58.0702"/>
    <text font-size="11.2889" style="fill: #000000;text-anchor:middle;font-family:Liberation Sans Narrow;font-style:normal;font-weight:700" x="409.018" y="1528.27">
      <tspan x="409.018" y="1528.27">This is a tough problem.</tspan>
      <tspan x="409.018" y="1542.38">Troubleshoot intensively, and/or</tspan>
      <tspan x="409.018" y="1556.49">seek help from others.</tspan>
    </text>
  </g>
  <line style="fill: none; fill-opacity:0; stroke-width: 3.048; stroke: #000000" x1="409.022" y1="1483.46" x2="409.02" y2="1508.29"/>
  <line style="fill: none; fill-opacity:0; stroke-width: 3.048; stroke: #000000" x1="409.06" y1="1385.34" x2="409.024" y2="1403.29"/>
  <line style="fill: none; fill-opacity:0; stroke-width: 3.048; stroke: #000000" x1="454.269" y1="177.106" x2="471.891" y2="177.332"/>
  <line style="fill: none; fill-opacity:0; stroke-width: 3.048; stroke: #000000" x1="454.3" y1="312.758" x2="471.491" y2="312.821"/>
  <line style="fill: none; fill-opacity:0; stroke-width: 3.048; stroke: #000000" x1="454.104" y1="478.082" x2="470.124" y2="478.241"/>
  <line style="fill: none; fill-opacity:0; stroke-width: 3.048; stroke: #000000" x1="452.529" y1="1278.84" x2="483.1" y2="1278.93"/>
  <line style="fill: none; fill-opacity:0; stroke-width: 3.048; stroke: #000000" x1="452.75" y1="1442.25" x2="472.641" y2="1442.09"/>
  <text font-size="13.5467" style="fill: #000000;text-anchor:start;font-family:Liberation Sans Narrow;font-style:normal;font-weight:700" x="287" y="176">
    <tspan x="287" y="176">1 minute</tspan>
  </text>
  <text font-size="13.5467" style="fill: #000000;text-anchor:start;font-family:Liberation Sans Narrow;font-style:normal;font-weight:700" x="286.9" y="314">
    <tspan x="286.9" y="314">3 minutes</tspan>
  </text>
  <text font-size="13.5467" style="fill: #000000;text-anchor:start;font-family:Liberation Sans Narrow;font-style:normal;font-weight:700" x="287.072" y="482">
    <tspan x="287.072" y="482">8 minutes</tspan>
  </text>
  <text font-size="13.5467" style="fill: #000000;text-anchor:start;font-family:Liberation Sans Narrow;font-style:normal;font-weight:700" x="283" y="702.236">
    <tspan x="283" y="702.236">15 minutes</tspan>
  </text>
  <text font-size="13.5467" style="fill: #000000;text-anchor:start;font-family:Liberation Sans Narrow;font-style:normal;font-weight:700" x="278.536" y="862.314">
    <tspan x="278.536" y="862.314">25 minutes</tspan>
  </text>
  <g>
    <rect style="fill: #ffffff" x="291.274" y="533.628" width="237.298" height="105.826"/>
    <rect style="fill: none; fill-opacity:0; stroke-width: 3.048; stroke: #000000" x="291.274" y="533.628" width="237.298" height="105.826"/>
    <text font-size="11.2889" style="fill: #000000;text-anchor:middle;font-family:Liberation Sans Narrow;font-style:normal;font-weight:700" x="409.923" y="547.752">
      <tspan x="409.923" y="547.752">You've ruled out low levels.</tspan>
      <tspan x="409.923" y="561.863">Check that speakers are powered up, turned on,</tspan>
      <tspan x="409.923" y="575.974">and plugged into the correct jack (usually green)</tspan>
      <tspan x="409.923" y="590.085">on your soundcard, the *right* sound card if there</tspan>
      <tspan x="409.923" y="604.196">is more than one. Use the penny test on the</tspan>
      <tspan x="409.923" y="618.308">speakers' input plug to make sure speakers</tspan>
      <tspan x="409.923" y="632.419">function.</tspan>
    </text>
  </g>
  <g>
    <polygon style="fill: #ffffff" points="409.488,656.728 452.272,696.055 409.488,735.383 366.704,696.055 "/>
    <polygon style="fill: none; fill-opacity:0; stroke-width: 3.048; stroke: #000000" points="409.488,656.728 452.272,696.055 409.488,735.383 366.704,696.055 "/>
    <text font-size="11.2889" style="fill: #000000;text-anchor:middle;font-family:Liberation Sans Narrow;font-style:normal;font-weight:700" x="409.488" y="692.544">
      <tspan x="409.488" y="692.544">speakers</tspan>
      <tspan x="409.488" y="706.655">play?</tspan>
    </text>
  </g>
  <text font-size="13.5467" style="fill: #000000;text-anchor:start;font-family:Liberation Sans Narrow;font-style:normal;font-weight:700" x="387.55" y="738.01">
    <tspan x="387.55" y="738.01">N</tspan>
  </text>
  <line style="fill: none; fill-opacity:0; stroke-width: 3.048; stroke: #000000" x1="408.884" y1="736.356" x2="408.66" y2="751.254"/>
  <line style="fill: none; fill-opacity:0; stroke-width: 3.048; stroke: #000000" x1="409.922" y1="639.454" x2="409.488" y2="656.728"/>
  <text font-size="13.5467" style="fill: #000000;text-anchor:start;font-family:Liberation Sans Narrow;font-style:normal;font-weight:700" x="450.1" y="690.036">
    <tspan x="450.1" y="690.036">Y</tspan>
  </text>
  <g>
    <ellipse style="fill: #ffffff" cx="489.702" cy="696.382" rx="19.1805" ry="16.2445"/>
    <ellipse style="fill: none; fill-opacity:0; stroke-width: 3.048; stroke: #000000" cx="489.702" cy="696.382" rx="19.1805" ry="16.2445"/>
    <text font-size="11.2889" style="fill: #000000;text-anchor:middle;font-family:Liberation Sans Narrow;font-style:normal;font-weight:700" x="489.702" y="699.927">
      <tspan x="489.702" y="699.927">Done</tspan>
    </text>
  </g>
  <line style="fill: none; fill-opacity:0; stroke-width: 3.048; stroke: #000000" x1="452.272" y1="696.056" x2="470.522" y2="696.382"/>
  <line style="fill: none; fill-opacity:0; stroke-width: 3.048; stroke: #000000" x1="410.138" y1="516.972" x2="409.922" y2="533.628"/>
  <text font-size="13.5467" style="fill: #000000;text-anchor:start;font-family:Liberation Sans Narrow;font-style:normal;font-weight:700" x="281.542" y="1284.29">
    <tspan x="281.542" y="1284.29">30 minutes</tspan>
  </text>
  <text font-size="13.5467" style="fill: #000000;text-anchor:start;font-family:Liberation Sans Narrow;font-style:normal;font-weight:700" x="281.542" y="1447.46">
    <tspan x="281.542" y="1447.46">45 minutes</tspan>
  </text>
  <g>
    <polygon style="fill: #ffffff" points="493.288,996.428 536.072,1035.76 493.288,1075.08 450.504,1035.76 "/>
    <polygon style="fill: none; fill-opacity:0; stroke-width: 3.048; stroke: #000000" points="493.288,996.428 536.072,1035.76 493.288,1075.08 450.504,1035.76 "/>
    <text font-size="11.2889" style="fill: #000000;text-anchor:middle;font-family:Liberation Sans Narrow;font-style:normal;font-weight:700" x="493.288" y="1032.24">
      <tspan x="493.288" y="1032.24">speakers</tspan>
      <tspan x="493.288" y="1046.36">play?</tspan>
    </text>
  </g>
  <g>
    <rect style="fill: #ffffff" x="324.26" y="915.248" width="167.902" height="63.4924"/>
    <rect style="fill: none; fill-opacity:0; stroke-width: 3.048; stroke: #000000" x="324.26" y="915.248" width="167.902" height="63.4924"/>
    <text font-size="11.2889" style="fill: #000000;text-anchor:middle;font-family:Liberation Sans Narrow;font-style:normal;font-weight:700" x="408.211" y="929.372">
      <tspan x="408.211" y="929.372">You've ruled out hardware.</tspan>
      <tspan x="408.211" y="943.483">Enable audio for the sound card</tspan>
      <tspan x="408.211" y="957.594">in the Configuration tab</tspan>
      <tspan x="408.211" y="971.705">of pavucontrol.</tspan>
    </text>
  </g>
  <polyline style="fill: none; fill-opacity:0; stroke-width: 3.048; stroke: #000000" points="408.212,978.74 408.212,990.014 493.29,990.014 493.29,996.428 "/>
  <text font-size="13.5467" style="fill: #000000;text-anchor:start;font-family:Liberation Sans Narrow;font-style:normal;font-weight:700" x="533.856" y="1029.43">
    <tspan x="533.856" y="1029.43">Y</tspan>
  </text>
  <g>
    <ellipse style="fill: #ffffff" cx="573.458" cy="1035.78" rx="19.1805" ry="16.2445"/>
    <ellipse style="fill: none; fill-opacity:0; stroke-width: 3.048; stroke: #000000" cx="573.458" cy="1035.78" rx="19.1805" ry="16.2445"/>
    <text font-size="11.2889" style="fill: #000000;text-anchor:middle;font-family:Liberation Sans Narrow;font-style:normal;font-weight:700" x="573.458" y="1039.32">
      <tspan x="573.458" y="1039.32">Done</tspan>
    </text>
  </g>
  <line style="fill: none; fill-opacity:0; stroke-width: 3.048; stroke: #000000" x1="536.074" y1="1035.76" x2="554.278" y2="1035.78"/>
  <text font-size="13.5467" style="fill: #000000;text-anchor:start;font-family:Liberation Sans Narrow;font-style:normal;font-weight:700" x="451.81" y="1054.8">
    <tspan x="451.81" y="1054.8">N</tspan>
  </text>
  <g>
    <polygon style="fill: #ffffff" points="362.85,1018.85 455.784,1079.31 362.85,1139.77 269.916,1079.31 "/>
    <polygon style="fill: none; fill-opacity:0; stroke-width: 3.048; stroke: #000000" points="362.85,1018.85 455.784,1079.31 362.85,1139.77 269.916,1079.31 "/>
    <text font-size="11.2889" style="fill: #000000;text-anchor:middle;font-family:Liberation Sans Narrow;font-style:normal;font-weight:700" x="362.85" y="1061.69">
      <tspan x="362.85" y="1061.69">Will pavucontrol</tspan>
      <tspan x="362.85" y="1075.8">allow you to enable</tspan>
      <tspan x="362.85" y="1089.91">audio for the sound</tspan>
      <tspan x="362.85" y="1104.02">card?</tspan>
    </text>
  </g>
  <polyline style="fill: none; fill-opacity:0; stroke-width: 3.048; stroke: #000000" points="362.764,1018.91 362.764,1005.28 414.686,1005.28 414.686,1035.76 450.504,1035.76 "/>
  <polyline style="fill: none; fill-opacity:0; stroke-width: 3.048; stroke: #000000" points="362.764,1139.72 362.764,1147.06 408.262,1147.06 408.262,1163.43 "/>
  <polyline style="fill: none; fill-opacity:0; stroke-width: 3.048; stroke: #000000" points="313.45,1538.84 247.066,1538.84 247.066,1079.31 269.744,1079.31 "/>
  <text font-size="19.1911" style="fill: #990000;text-anchor:start;font-family:Liberation Sans Narrow;font-style:normal;font-weight:700" x="379.33" y="1144.58">
    <tspan x="379.33" y="1144.58">Y</tspan>
  </text>
  <text font-size="19.1911" style="fill: #990000;text-anchor:start;font-family:Liberation Sans Narrow;font-style:normal;font-weight:700" x="260.536" y="1098.23">
    <tspan x="260.536" y="1098.23">N</tspan>
  </text>
  <text font-size="13.5467" style="fill: #000000;text-anchor:start;font-family:Liberation Sans Narrow;font-style:normal;font-weight:700" x="234.728" y="1051.21">
    <tspan x="234.728" y="1051.21">27 minutes</tspan>
  </text>
</svg>
